# xmcd
#
# Track frame offsets: 
#        150
#        22656
#        29955
#        53497
#        69799
#        94229
#        112938
#        144261
#        158376
#        168949
#        188738
#        207518
#        234970
#        250051
#
# Disc length: 4146 seconds
#
# Revision: 3
# Processed by: cddbd v1.5.2PL0 Copyright (c) Steve Scherf et al.
# Submitted via: ExactAudioCopy v0.99pb3
#
DISCID=a410300e
DTITLE=Robert Nighthawk - Live on Maxwell Street 1964
DYEAR=2000
DGENRE=Blues
TTITLE0=Cheating and Lying Blues
TTITLE1=Juke Medley
TTITLE2=The Time Have Come
TTITLE3=Honey Hush
TTITLE4=I Need Your Love So Bad
TTITLE5=Take it Easy Baby
TTITLE6=Anna Lee - Sweet Black Angel
TTITLE7=Big World Blues
TTITLE8=Maxwell Street Jam
TTITLE9=I Got News for You
TTITLE10=All I Want for Breakfast - Them Kind of People
TTITLE11=Mama Talk to Your Daughter
TTITLE12=The Real McCoy
TTITLE13=Interview
EXTD=ID3G:   0
EXTT0=
EXTT1=
EXTT2=
EXTT3=
EXTT4=
EXTT5=
EXTT6=
EXTT7=
EXTT8=
EXTT9=
EXTT10=
EXTT11=
EXTT12=
EXTT13=
PLAYORDER=
